<?xml version="1.0" encoding="utf-8"?>
<!-- Generated by Mocodo 4.2.4 -->
<svg width="380" height="305" viewBox="0 0 380 305" xmlns="http://www.w3.org/2000/svg">
<rect x="0" y="0" width="380" height="305" fill="#ffffbf" stroke="none" stroke-width="0"/>

<!-- Association PAIE -->
<g>
	<line x1="55" y1="77" x2="184" y2="77" stroke="#f46d43" stroke-width="2"/>
	<line x1="315" y1="77" x2="184" y2="77" stroke="#f46d43" stroke-width="2"/>
	<g>
		<path d="M221 52 a14 14 90 0 1 14 14 V77 h-102 V66 a14 14 90 0 1 14 -14" fill="#fdae61" stroke="#fdae61" stroke-width="0"/>
		<path d="M235 77 v11 a14 14 90 0 1 -14 14 H147 a14 14 90 0 1 -14 -14 V77 H102" fill="#fee08b" stroke="#fee08b" stroke-width="0"/>
		<rect x="133" y="52" width="102" height="50" fill="none" rx="14" stroke="#f46d43" stroke-width="2"/>
		<line x1="133" y1="77" x2="235" y2="77" stroke="#f46d43" stroke-width="1"/>
		<text x="171" y="69.75" fill="#000000" font-family="Verdana" font-size="12">paie</text>
		<text x="140" y="94.8" fill="#000000" font-family="Verdana" font-size="12">date paiement</text>
	</g>
	<text x="106" y="94" fill="#3288bd" font-family="Verdana" font-size="12">0,N</text>
	<text x="241" y="94" fill="#3288bd" font-family="Verdana" font-size="12">1,1</text>
</g>

<!-- Association CONTIENT -->
<g>
	<line x1="315" y1="77" x2="315" y2="170" stroke="#f46d43" stroke-width="2"/>
	<line x1="315" y1="254" x2="315" y2="170" stroke="#f46d43" stroke-width="2"/>
	<g>
		<path d="M333 145 a14 14 90 0 1 14 14 V170 h-64 V159 a14 14 90 0 1 14 -14" fill="#fdae61" stroke="#fdae61" stroke-width="0"/>
		<path d="M347 170 v11 a14 14 90 0 1 -14 14 H297 a14 14 90 0 1 -14 -14 V170 H64" fill="#fee08b" stroke="#fee08b" stroke-width="0"/>
		<rect x="283" y="145" width="64" height="50" fill="none" rx="14" stroke="#f46d43" stroke-width="2"/>
		<line x1="283" y1="170" x2="347" y2="170" stroke="#f46d43" stroke-width="1"/>
		<text x="290" y="162.75" fill="#000000" font-family="Verdana" font-size="12">contient</text>
	</g>
	<text x="320" y="128" fill="#3288bd" font-family="Verdana" font-size="12">1,N</text>
	<text x="320" y="212" fill="#3288bd" font-family="Verdana" font-size="12">1,1</text>
</g>

<!-- Association CONCERNE -->
<g>
	<line x1="55" y1="254" x2="184" y2="254" stroke="#f46d43" stroke-width="2"/>
	<line x1="315" y1="254" x2="184" y2="254" stroke="#f46d43" stroke-width="2"/>
	<g>
		<path d="M205 229 a14 14 90 0 1 14 14 V254 h-70 V243 a14 14 90 0 1 14 -14" fill="#fdae61" stroke="#fdae61" stroke-width="0"/>
		<path d="M219 254 v11 a14 14 90 0 1 -14 14 H163 a14 14 90 0 1 -14 -14 V254 H70" fill="#fee08b" stroke="#fee08b" stroke-width="0"/>
		<rect x="149" y="229" width="70" height="50" fill="none" rx="14" stroke="#f46d43" stroke-width="2"/>
		<line x1="149" y1="254" x2="219" y2="254" stroke="#f46d43" stroke-width="1"/>
		<text x="157" y="246.75" fill="#000000" font-family="Verdana" font-size="12">concerne</text>
	</g>
	<text x="99" y="271" fill="#3288bd" font-family="Verdana" font-size="12">0,N</text>
	<text x="233" y="271" fill="#3288bd" font-family="Verdana" font-size="12">1,1</text>
</g>

<!-- Entity VISITEUR -->
<g>
	<g>
		<rect x="9" y="9" width="92" height="25" fill="#abdda4" stroke="none" stroke-width="0" opacity="1"/>
		<rect x="9" y="34" width="92" height="111" fill="#e6f598" stroke="none" stroke-width="0" opacity="1"/>
		<rect x="9" y="9" width="92" height="136" fill="none" stroke="#66c2a5" stroke-width="2" opacity="1"/>
		<line x1="9" y1="34" x2="101" y2="34" stroke="#66c2a5" stroke-width="1"/>
	</g>
	<text x="25" y="26.75" fill="#000000" font-family="Verdana" font-size="12">VISITEUR</text>
	<text x="14" y="51.8" fill="#000000" font-family="Verdana" font-size="12">email</text>
	<line x1="14" y1="54" x2="48" y2="54" stroke="#000000" stroke-width="1"/>
	<text x="14" y="68.8" fill="#000000" font-family="Verdana" font-size="12">mot de passe</text>
	<text x="14" y="85.8" fill="#000000" font-family="Verdana" font-size="12">nom</text>
	<text x="14" y="102.8" fill="#000000" font-family="Verdana" font-size="12">adresse</text>
	<text x="14" y="119.8" fill="#000000" font-family="Verdana" font-size="12">code postal</text>
	<text x="14" y="136.8" fill="#000000" font-family="Verdana" font-size="12">ville</text>
</g>

<!-- Entity FACTURE -->
<g>
	<g>
		<rect x="267" y="43" width="96" height="25" fill="#abdda4" stroke="none" stroke-width="0" opacity="1"/>
		<rect x="267" y="68" width="96" height="43" fill="#e6f598" stroke="none" stroke-width="0" opacity="1"/>
		<rect x="267" y="43" width="96" height="68" fill="none" stroke="#66c2a5" stroke-width="2" opacity="1"/>
		<line x1="267" y1="68" x2="363" y2="68" stroke="#66c2a5" stroke-width="1"/>
	</g>
	<text x="287" y="60.75" fill="#000000" font-family="Verdana" font-size="12">FACTURE</text>
	<text x="272" y="85.8" fill="#000000" font-family="Verdana" font-size="12">ref_facture</text>
	<line x1="272" y1="88" x2="339" y2="88" stroke="#000000" stroke-width="1"/>
	<text x="272" y="102.8" fill="#000000" font-family="Verdana" font-size="12">date emission</text>
</g>

<!-- Entity PRODUIT -->
<g>
	<g>
		<rect x="16" y="212" width="78" height="25" fill="#abdda4" stroke="none" stroke-width="0" opacity="1"/>
		<rect x="16" y="237" width="78" height="59" fill="#e6f598" stroke="none" stroke-width="0" opacity="1"/>
		<rect x="16" y="212" width="78" height="84" fill="none" stroke="#66c2a5" stroke-width="2" opacity="1"/>
		<line x1="16" y1="237" x2="94" y2="237" stroke="#66c2a5" stroke-width="1"/>
	</g>
	<text x="27" y="229.75" fill="#000000" font-family="Verdana" font-size="12">PRODUIT</text>
	<text x="21" y="254.8" fill="#000000" font-family="Verdana" font-size="12">description</text>
	<line x1="21" y1="257" x2="88" y2="257" stroke="#000000" stroke-width="1"/>
	<text x="21" y="271.8" fill="#000000" font-family="Verdana" font-size="12">prix HT</text>
	<text x="21" y="288.8" fill="#000000" font-family="Verdana" font-size="12">TVA</text>
</g>

<!-- Entity LIGNE_FACTURE -->
<g>
	<g>
		<rect x="259" y="220" width="112" height="25" fill="#abdda4" stroke="none" stroke-width="0" opacity="1"/>
		<rect x="259" y="245" width="112" height="43" fill="#e6f598" stroke="none" stroke-width="0" opacity="1"/>
		<rect x="259" y="220" width="112" height="68" fill="none" stroke="#66c2a5" stroke-width="2" opacity="1"/>
		<line x1="259" y1="245" x2="371" y2="245" stroke="#66c2a5" stroke-width="1"/>
	</g>
	<text x="264" y="237.75" fill="#000000" font-family="Verdana" font-size="12">LIGNE_FACTURE</text>
	<text x="264" y="262.8" fill="#000000" font-family="Verdana" font-size="12">ref_ligne</text>
	<line x1="264" y1="265" x2="318" y2="265" stroke="#000000" stroke-width="1"/>
	<text x="264" y="279.8" fill="#000000" font-family="Verdana" font-size="12">quantité</text>
</g>
</svg>